<svg width="866" height="227" viewBox="0 0 866 227" fill="none" xmlns="http://www.w3.org/2000/svg">
<g clip-path="url(#clip0_814_345)">
<path d="M134.516 79.0243L161.788 63.2466C174.405 55.9716 184.18 53.0201 190.346 53.1142L98.2403 0L15.8047 47.5381L134.516 79.0243Z" fill="#A3B1AC"/>
<path d="M0 56.8633L86.4021 106.858L30.864 138.988C26.7313 141.997 21.0363 146.292 15.8023 150.887L0 145.304V56.8633Z" fill="#3C4742"/>
<path d="M22.6091 166.389C29.9293 164.006 37.3466 160.817 42.2281 158.648L98.2406 126.244V226.608L19.8231 181.388L22.6091 166.389Z" fill="#3C4742"/>
<path d="M173.184 82.8879L146.582 98.2774L114.363 217.311L196.481 169.956V62.9121C193.638 68.3063 186.151 75.4107 173.184 82.8879Z" fill="#596560"/>
</g>
<path d="M303.35 85.6334C294.614 85.6334 286.645 89.1497 280.821 94.9591V60.5615H257.831V170.633H279.288V160.391C284.499 168.035 293.388 173.079 303.35 173.079C328.486 173.079 348.87 153.511 348.87 129.356C348.87 105.202 328.486 85.6335 303.35 85.6335V85.6334ZM302.891 152.288C290.17 152.288 279.901 142.045 279.901 129.356C279.901 116.667 290.17 106.425 302.891 106.425C315.612 106.425 325.88 116.668 325.88 129.356C325.88 142.045 315.612 152.288 302.891 152.288Z" fill="#596560"/>
<path d="M359.608 170.633H382.597V60.5615H359.608V170.633V170.633Z" fill="#596560"/>
<path d="M484.671 129.357C484.671 105.202 464.287 85.6338 438.999 85.6338C413.71 85.6338 393.326 105.202 393.326 129.357C393.326 153.511 413.71 173.08 438.999 173.08C464.287 173.08 484.671 153.511 484.671 129.357V129.357ZM461.682 129.357C461.682 142.046 451.566 152.288 438.999 152.288C426.431 152.288 416.316 142.046 416.316 129.357C416.316 116.668 426.431 106.425 438.999 106.425C451.566 106.425 461.682 116.668 461.682 129.357V129.357Z" fill="#596560"/>
<path d="M536.741 106.425C545.629 106.425 553.139 111.317 557.125 118.655H581.339C576.283 99.6986 558.198 85.6338 536.741 85.6338C511.299 85.6338 490.762 105.202 490.762 129.357C490.762 153.511 511.299 173.08 536.741 173.08C558.044 173.08 575.824 159.321 581.034 140.67H556.358C552.526 147.549 545.324 152.288 536.741 152.288C524.02 152.288 513.751 142.046 513.751 129.357C513.751 116.668 524.02 106.425 536.741 106.425V106.425Z" fill="#596560"/>
<path d="M614.439 170.633V127.063L648.004 170.633H675.898L638.194 123.241L668.694 88.0795H641.107L614.439 119.725V60.5615H591.449V170.633H614.439Z" fill="#596560"/>
<path d="M719.03 85.6339C693.894 85.6339 673.51 105.202 673.51 129.357C673.51 153.512 693.894 173.08 719.03 173.08C728.991 173.08 737.882 168.035 743.093 160.391V170.634H764.55V129.357C764.55 105.202 744.166 85.6338 719.03 85.6338L719.03 85.6339ZM719.489 152.289C706.769 152.289 696.5 142.046 696.5 129.357C696.5 116.668 706.769 106.425 719.489 106.425C732.21 106.425 742.479 116.668 742.479 129.357C742.479 142.046 732.21 152.289 719.489 152.289Z" fill="#596560"/>
<path d="M792.013 53.5293C784.654 53.5293 778.83 59.4915 778.83 66.6768C778.83 74.015 784.654 79.8243 792.013 79.8243C799.215 79.8243 805.193 74.015 805.193 66.6768C805.193 59.4915 799.215 53.5293 792.013 53.5293V53.5293ZM780.516 170.634H803.506V88.0796H780.516V170.634V170.634Z" fill="#596560"/>
<path d="M819.381 129.357V170.634H842.371V129.357C842.371 116.668 852.64 106.425 865.361 106.425V85.6338H862.296C836.852 85.6338 819.381 105.202 819.381 129.357V129.357Z" fill="#596560"/>
<defs>
<clipPath id="clip0_814_345">
<rect width="196.481" height="226.609" fill="white"/>
</clipPath>
</defs>
</svg>
