<svg width="69" height="68" viewBox="0 0 69 68" fill="none" xmlns="http://www.w3.org/2000/svg">
<rect x="1.3573" y="0.801389" width="66.7712" height="66.7712" rx="8.62774" fill="#596560" stroke="url(#paint0_linear_1_56)" stroke-width="0.750238"/>
<path d="M53.6667 15.2254C54.3398 15.8985 52.5976 19.5412 49.7073 22.4314C49.5885 22.5502 46.1438 25.9156 44.6789 27.4201C44.2434 27.816 44.0454 28.4891 44.2038 29.1226C44.2038 29.1226 47.9255 48.0479 48.0444 48.6018C48.0444 48.6018 48.282 49.552 47.5297 50.3043L46.5003 51.3337C46.3023 51.5317 46.1835 51.3337 46.1835 51.3337L39.9278 38.9805C39.9278 38.9805 39.7695 38.6637 39.6507 38.4658C39.5319 38.2678 39.3339 38.0303 39.3339 38.0303L37.0771 35.7734C37.0771 35.7734 36.6811 35.3774 36.206 35.7734C31.8508 39.6536 29.1979 41.6729 27.7331 42.9399C26.9808 43.613 27.2183 44.682 27.2975 45.0778C27.7727 47.4138 28.4458 50.898 28.5249 51.2148C28.5249 51.2148 28.6833 51.9275 28.129 52.4818L27.3767 53.2341C27.2579 53.3528 27.1392 53.2737 27.0996 53.1945L23.5361 46.0676C22.8234 46.5823 22.1503 47.0179 22.0315 46.9387C21.9523 46.8199 22.3878 46.1468 22.9026 45.4341L15.7757 41.8706C15.6965 41.831 15.6173 41.7122 15.7361 41.5935L16.4884 40.8412C17.0427 40.2869 17.7554 40.4452 17.7554 40.4452C18.0721 40.5244 21.5564 41.1975 23.8923 41.6726C24.2883 41.7518 25.3573 41.9894 26.0303 41.2371C27.2577 39.7721 29.3165 37.1194 33.1968 32.7642C33.5927 32.289 33.1968 31.8931 33.1968 31.8931L30.9399 29.6362C30.9399 29.6362 30.7419 29.4383 30.5044 29.3195C30.3064 29.2007 29.9897 29.0423 29.9897 29.0423L17.6365 22.747C17.6365 22.747 17.4385 22.6282 17.6365 22.4302L18.6659 21.4008C19.4182 20.6485 20.3684 20.8861 20.3684 20.8861C20.8831 21.0049 39.8476 24.7267 39.8476 24.7267C40.5207 24.8455 41.1542 24.6475 41.5501 24.2516C43.0151 22.747 46.4201 19.3023 46.5388 19.2232C49.3499 16.2932 52.9925 14.5513 53.6657 15.2242L53.6667 15.2254Z" fill="white"/>
<defs>
<linearGradient id="paint0_linear_1_56" x1="34.7429" y1="0.42627" x2="34.7429" y2="67.9477" gradientUnits="userSpaceOnUse">
<stop stop-color="white"/>
<stop offset="0.526042" stop-color="white" stop-opacity="0"/>
<stop offset="1" stop-color="white"/>
</linearGradient>
</defs>
</svg>
