<?xml version="1.0" encoding="utf-8"?>
<!-- Generator: Adobe Illustrator 27.3.1, SVG Export Plug-In . SVG Version: 6.00 Build 0)  -->
<svg version="1.1" id="Layer_1" xmlns="http://www.w3.org/2000/svg" xmlns:xlink="http://www.w3.org/1999/xlink" x="0px" y="0px"
	 viewBox="0 0 380.6 380.6" style="enable-background:new 0 0 380.6 380.6;" xml:space="preserve">
<style type="text/css">
	.st0{fill:#5A655F;}
	.st1{fill:#FFFFFF;}
</style>
<g transform="translate(-334.2 -335.5)">
<path class="st0" d="M690.1,716.1H358.9c-13.6,0-24.7-11-24.7-24.7V360.2c0-13.6,11-24.7,24.7-24.7h331.2c13.6,0,24.7,11,24.7,24.7
v331.2C714.7,705,703.7,716.1,690.1,716.1z"/>
<path class="st1" d="M529.7,431.1c24.8,0,49.6,0,74.5,0c3.5,0,4.5,0.9,4.4,4.4c-0.1,9.9-0.2,19.9-0.4,29.8c0,3.1-1.3,4.3-4.4,4.3
	c-16.2,0-32.5,0-48.7,0c-3.7,0-4.5,0.9-4.5,4.5c0,5.3,0.1,10.7,0.1,16c0,3.6,1.1,4.5,4.7,4.8c6.9,0.4,13.9,0.9,20.8,1.7
	c8.4,1,16.8,2.3,25.2,3.7c7.1,1.3,14.2,3.2,20.6,6.6c2.7,1.4,5.3,3.1,7.5,5.2c4,3.7,2.8,10.2-1.9,12.8c-11.2,6.4-23.4,9.4-35.9,11.4
	c-9.3,1.4-18.6,2.3-28,3.4c-2.6,0.3-5.3,0.5-8,0.7c-3.8,0.3-5.4,1.9-5.4,5.7c0.1,16,0.2,32,0.3,48c0,7,0,14,0,21
	c0,2.8-1.2,4.2-3.9,4.7c-0.7,0.1-1.4,0.2-2,0.2c-10.1,0.1-20.2,0.3-30.3,0.4c-4.3,0-6.6-2.3-6.6-6.6c0.1-22.5,0.3-45,0.4-67.5
	c0-1.1,0-2.2-0.4-3.2c-0.9-2.7-3.2-3.4-5.7-3.5c-12.5-0.5-24.9-1.9-37.1-4.5c-9.4-2-18.7-4.7-28-7.2c-1.9-0.5-3.8-1.6-5.5-2.7
	c-3.9-2.5-4.7-6.4-4.2-10.8c0.5-5,4.3-6.6,8.2-8c10.8-3.8,22-6.5,33.3-8.4c8.8-1.4,17.7-2.3,26.6-3.4c0.8-0.1,1.7-0.1,2.6-0.1
	c1.6,0,2.3,0.8,2.5,2.4c0.1,1.4-0.4,2-1.8,2c-8.3,0-16.6,0.8-24.9,2c-9,1.4-17.8,3.4-26.5,6.1c-1.6,0.5-3.1,1-4.7,1.5
	c-3.4,1.2-5.1,3.5-5.1,7c0,2.8,2,5.7,5.1,6.6c5.7,1.5,11.4,3,17.1,4.1c10,1.8,20.1,3.4,30.2,4.7c5.7,0.8,11.5,1.3,17.3,1.4
	c12.4,0.4,24.8,0.7,37.3,0.6c7.5-0.1,14.9-0.8,22.4-1.6c9.5-1,18.9-2.4,28.3-3.8c7.4-1.2,14.9-2.3,21.6-6.3c1.3-0.7,2.5-1.5,3.7-2.4
	c2.7-2.1,2.6-5.7-0.2-7.6c-5.1-3.4-10.7-5.5-16.6-6.8c-7.9-1.7-15.8-3-23.7-4.2c-8.6-1.2-17.2-2.1-25.8-3.1
	c-2.4-0.3-3.4,0.6-3.4,3.2c-0.1,4.6,0,9.2-0.1,13.8c0,1.1-0.2,2.3-0.2,3.4c-0.3,5.7-3.8,7.7-8.8,7.8c-8.7,0.1-17.5,0.1-26.2,0
	c-4.9,0-7.6-2.8-7.6-7.7c-0.1-10,0-20,0-30c0-5,0-10,0-15c0-2.5-0.8-3.3-3.2-3.3c-14.1,0.1-28.3,0.3-42.4,0.4c-2.3,0-4.6,0.3-7,0.3
	c-3.2,0-4.9-1.8-4.9-5c0-9.8,0-19.5,0-29.3c0-3.8,1.3-5.1,5.1-5.1C480.1,431.1,504.9,431.1,529.7,431.1z"/>
</g>
</svg>
